<!-- Created with Inkscape (http://www.inkscape.org/) -->
<svg width="23.668mm" height="22.862mm" version="1.1" viewBox="0 0 23.668 22.862" xmlns="http://www.w3.org/2000/svg">
 <g transform="translate(88.991 -136.65)">
  <path d="m-65.479 142.09c0.17118-0.16748 0.26564-0.40032 0.25479-0.65008-0.01482-0.33735-0.21802-0.62733-0.5297-0.75671l-9.3133-3.8679c-0.56938-0.23628-1.215-0.22014-1.7719 0.0445l-11.661 5.5454c-0.30533 0.14525-0.49345 0.44529-0.49107 0.78343 0.0019 0.23416 0.09631 0.44741 0.25559 0.60404-0.16245 0.15981-0.25744 0.37862-0.25559 0.61728 0.0019 0.23415 0.09631 0.44741 0.25559 0.60404-0.16245 0.15981-0.25744 0.37862-0.25559 0.61727 0.0019 0.23522 0.0971 0.44926 0.25744 0.6059-0.16272 0.15981-0.25929 0.37676-0.25744 0.61542 0.0019 0.23416 0.09657 0.44767 0.25585 0.60431-0.16272 0.15954-0.2577 0.37835-0.25585 0.61701 0.0019 0.24447 0.10424 0.46699 0.27649 0.62494-0.17595 0.16113-0.27834 0.38947-0.27649 0.63871 0.0019 0.23415 0.09631 0.44741 0.25559 0.60404-0.16245 0.15981-0.25744 0.37835-0.25559 0.61727 0.0019 0.23416 0.09631 0.44741 0.25559 0.60405-0.16245 0.1598-0.25744 0.37861-0.25559 0.61727 0.0019 0.23521 0.0971 0.44926 0.25744 0.60589-0.16272 0.15955-0.25929 0.37651-0.25744 0.61543 0.0019 0.23415 0.09657 0.44767 0.25585 0.6043-0.16272 0.15955-0.2577 0.37809-0.25585 0.61701 0.0026 0.33814 0.19526 0.63553 0.50271 0.77576l9.4348 4.3135c0.29051 0.13282 0.59902 0.19897 0.90726 0.19897 0.34581 0 0.69083-0.0833 1.0086-0.24977l11.452-5.9872c0.29898-0.15637 0.47546-0.46302 0.46064-0.80037-0.0098-0.22251-0.10319-0.4228-0.25426-0.57123 0.17092-0.16775 0.26538-0.40032 0.25426-0.65008-0.0098-0.22252-0.10266-0.42334-0.25347-0.57203 0.17039-0.16749 0.26458-0.39979 0.25347-0.64929-0.0098-0.22252-0.10292-0.42281-0.254-0.5715 0.17092-0.16748 0.26511-0.40005 0.25426-0.64955-0.0098-0.22252-0.10345-0.42281-0.25479-0.57124 0.17118-0.16748 0.26564-0.40031 0.25479-0.65008-0.01032-0.23363-0.11245-0.44291-0.27675-0.59346 0.18468-0.1688 0.28813-0.4101 0.27649-0.67019-0.0098-0.22251-0.10319-0.4228-0.25426-0.57124 0.17092-0.16774 0.26538-0.40031 0.25426-0.65008-0.0098-0.22251-0.10266-0.42333-0.25347-0.57203 0.17039-0.16748 0.26458-0.39978 0.25347-0.64928-0.0098-0.22252-0.10292-0.42281-0.254-0.5715 0.17092-0.16748 0.26511-0.40005 0.25426-0.64956-0.0098-0.22251-0.10345-0.4228-0.25479-0.57123zm-22.798 0.78343 11.661-5.5451c0.2249-0.10689 0.46911-0.1606 0.71332-0.1606 0.21616 0 0.43312 0.0421 0.63659 0.12674l9.3131 3.8677c0.12594 0.0524 0.20452 0.16483 0.21061 0.30083 0.0058 0.13599-0.06244 0.25479-0.18309 0.31776l-11.452 5.9875c-0.45773 0.23919-0.98981 0.25347-1.46 0.0384l-9.4345-4.3135c-0.12409-0.0566-0.1987-0.17197-0.19976-0.30824-0.0011-0.13652 0.07197-0.25294 0.19526-0.31141zm-2.64e-4 1.2213 0.03625-0.0172 9.1877 4.2005c0.29051 0.13282 0.59902 0.19897 0.90726 0.19897 0.34581 0 0.69083-0.0833 1.0086-0.24977l11.181-5.8454 0.0034 1e-3c0.12594 0.0524 0.20452 0.16484 0.21061 0.30084 0.0058 0.13599-0.06244 0.25479-0.18309 0.31776l-11.452 5.9875c-0.45773 0.23945-0.98981 0.25374-1.46 0.0384l-9.4347-4.3132c-0.12409-0.0566-0.1987-0.17198-0.19976-0.3085-0.0011-0.13626 0.07197-0.25268 0.195-0.31115zm0 1.2213 0.03625-0.0172 9.1877 4.2005c0.29051 0.13282 0.59902 0.19897 0.90726 0.19897 0.34581 0 0.69083-0.0833 1.0086-0.24977l11.181-5.8454 0.0034 1e-3c0.12594 0.0521 0.20452 0.16457 0.21034 0.30057 0.0061 0.13599-0.06218 0.25479-0.18283 0.31803l-11.452 5.9875c-0.45773 0.23918-0.98981 0.25347-1.46 0.0384l-9.4347-4.3132c-0.12409-0.0566-0.1987-0.17198-0.19976-0.30851-0.0011-0.13626 0.07197-0.25267 0.195-0.31115zm0 1.2213 0.03625-0.0172 9.1877 4.2005c0.29051 0.13282 0.59902 0.19896 0.90726 0.19896 0.34581 0 0.69083-0.0833 1.0086-0.24976l11.181-5.8454 0.0034 1e-3c0.12594 0.0521 0.20452 0.16457 0.21034 0.30056 0.0061 0.136-0.06218 0.2548-0.18283 0.31803l-11.452 5.9875c-0.45773 0.23919-0.98981 0.25348-1.46 0.0384l-9.4347-4.3132c-0.12409-0.0566-0.1987-0.17197-0.19976-0.3085-0.0011-0.13626 0.07197-0.25268 0.195-0.31115zm0 1.2213 0.03625-0.0172 9.1877 4.2005c0.29051 0.13282 0.59902 0.19897 0.90726 0.19897 0.34581 0 0.69083-0.0833 1.0086-0.24977l11.181-5.8454 0.0034 1e-3c0.12594 0.0521 0.20452 0.16457 0.21034 0.30057 0.0061 0.13599-0.06218 0.25479-0.18283 0.31803l-11.452 5.9875c-0.45773 0.23918-0.98981 0.25373-1.46 0.0386l-9.4347-4.3135c-0.12409-0.0566-0.1987-0.17198-0.19976-0.3085-0.0011-0.13626 0.07197-0.25268 0.195-0.31115zm22.352 5.0562-11.452 5.9873c-0.45773 0.23918-0.98981 0.25374-1.46 0.0386l-9.4348-4.3138c-0.12409-0.0566-0.1987-0.17198-0.19976-0.3085-0.0011-0.13626 0.07197-0.25268 0.195-0.31115l0.03625-0.0172 9.1877 4.2005c0.29051 0.13282 0.59902 0.19897 0.90726 0.19897 0.34581 0 0.69083-0.0833 1.0086-0.24977l11.181-5.8454 0.0034 1e-3c0.12594 0.0521 0.20452 0.16458 0.21034 0.30057 0.0064 0.13653-0.06218 0.25506-0.18256 0.31856zm0-1.2213-11.452 5.9872c-0.45773 0.23919-0.98981 0.25347-1.46 0.0386l-9.4348-4.3138c-0.12409-0.0566-0.1987-0.17198-0.19976-0.30851-0.0011-0.13626 0.07197-0.25267 0.195-0.31115l0.03625-0.0172 9.1877 4.2005c0.29051 0.13282 0.59902 0.19896 0.90726 0.19896 0.34581 0 0.69083-0.0833 1.0086-0.24976l11.181-5.8452 0.0034 1e-3c0.12594 0.0521 0.20452 0.16457 0.21034 0.30057 0.0064 0.13626-0.06218 0.25479-0.18256 0.31829zm0-1.2213-11.452 5.9873c-0.45773 0.23918-0.98981 0.25347-1.46 0.0384l-9.4348-4.3135c-0.12409-0.0566-0.1987-0.17198-0.19976-0.3085-0.0011-0.13626 0.07197-0.25268 0.195-0.31115l0.03625-0.0172 9.1877 4.2005c0.29051 0.13282 0.59902 0.19897 0.90726 0.19897 0.34581 0 0.69083-0.0833 1.0086-0.24977l11.181-5.8454 0.0034 1e-3c0.12594 0.0521 0.20452 0.16457 0.21034 0.30057 0.0061 0.13652-0.06244 0.25506-0.18283 0.31856zm0-1.2216-11.452 5.9875c-0.45773 0.23945-0.98981 0.25374-1.46 0.0384l-9.4348-4.3132c-0.12409-0.0566-0.1987-0.17198-0.19976-0.30851-0.0011-0.13626 0.07197-0.25267 0.195-0.31115l0.03625-0.0172 9.1877 4.2005c0.29051 0.13282 0.59902 0.19897 0.90726 0.19897 0.34581 0 0.69083-0.0833 1.0086-0.24977l11.181-5.8454 0.0034 1e-3c0.12594 0.0524 0.20452 0.16483 0.21061 0.30083 0.0058 0.136-0.06271 0.25479-0.18309 0.31776zm0-1.2213-11.452 5.9875c-0.45773 0.23919-0.98981 0.25347-1.46 0.0384l-9.4348-4.3132c-0.12409-0.0566-0.1987-0.17198-0.19976-0.30824-0.0011-0.13626 0.07197-0.25268 0.195-0.31115l0.08149-0.0389 9.1421 4.1796c0.29051 0.13283 0.59902 0.19897 0.90726 0.19897 0.34581 0 0.69083-0.0833 1.0086-0.24977l11.136-5.8219 0.04842 0.0201c0.12594 0.0524 0.20452 0.16484 0.21061 0.30083 0.0061 0.136-0.06244 0.2548-0.18283 0.31777z" stroke-width=".26458"/>
  <g fill="#fff" stroke="#ff0" stroke-linecap="round" stroke-linejoin="round">
   <g stroke-width=".00031567">
    <path transform="matrix(.28222 0 0 .28222 -88.991 136.65)" d="m37.849 40.034c-0.0434-0.0075-0.18546-0.02885-0.31567-0.04755-0.30289-0.04349-0.78554-0.16413-1.08-0.26995-0.12653-0.04547-4.2004-1.8976-9.0531-4.1158-20.014-9.1488-24.735-11.309-24.884-11.384-0.22198-0.11249-0.44853-0.33625-0.55043-0.54365-0.079245-0.1613-0.087257-0.20949-0.087257-0.52485 0-0.32126 0.00691-0.36088 0.092358-0.52962 0.1208-0.23855 0.33103-0.43112 0.63784-0.58426 0.13661-0.06819 6.9898-3.3293 15.229-7.2469l14.981-7.1229h14.29 14.29v10.567 10.567l-3.5119 1.8358c-1.9315 1.0097-6.4381 3.3663-10.015 5.237-3.5766 1.8706-6.6875 3.49-6.9132 3.5985-0.82616 0.39725-1.4862 0.55132-2.4307 0.56742-0.32988 0.0056-0.63529 0.0041-0.6787-0.0033z"/>
    <path transform="matrix(.28222 0 0 .28222 -88.991 136.65)" d="m37.611 44.331c-0.34804-0.053329-0.84914-0.17842-1.1581-0.28908-0.21304-0.076317-33.47-15.266-33.929-15.496-0.23883-0.12002-0.47475-0.35579-0.57574-0.57539-0.057528-0.12508-0.069249-0.20835-0.070026-0.49747-8.659e-4 -0.32222 0.00572-0.36038 0.091425-0.52962 0.16918-0.33409 0.58544-0.64286 0.76858-0.57012 0.047344 0.0188 3.0053 1.3696 6.5732 3.0017 20.357 9.3125 26.091 11.929 26.375 12.037 0.97755 0.37113 1.9122 0.52592 2.9809 0.49366 1.0351-0.03124 1.9594-0.24049 2.8741-0.65065 0.1823-0.08174 2.3912-1.2258 4.9087-2.5425 2.5175-1.3166 6.7507-3.5297 9.407-4.918 2.6564-1.3883 4.9896-2.609 5.1849-2.7125l0.35513-0.18835v1.115 1.115l-2.0598 1.0775c-8.7828 4.5944-17.999 9.4088-18.291 9.5552-0.43997 0.22053-0.98301 0.4094-1.4772 0.51377-0.31757 0.06707-0.48592 0.08218-1.027 0.09219-0.44835 0.0083-0.73466-0.0014-0.93207-0.03169z"/>
    <path transform="matrix(.28222 0 0 .28222 -88.991 136.65)" d="m37.786 48.682c-0.32973-0.040415-0.84321-0.15636-1.175-0.26532-0.25884-0.084994-5.5988-2.511-17.097-7.7672-9.1962-4.204-16.823-7.6932-16.948-7.7539-0.26295-0.12756-0.51178-0.36919-0.61878-0.60088-0.058018-0.12562-0.069262-0.20634-0.069262-0.49721 0-0.31888 0.00718-0.36087 0.087916-0.5141 0.048354-0.09177 0.14002-0.22453 0.20369-0.29501 0.11573-0.1281 0.396-0.31067 0.47778-0.31123 0.023835-1.63e-4 2.3393 1.0494 5.1455 2.3322 2.8062 1.2829 10.095 4.6158 16.198 7.4064s11.21 5.1235 11.348 5.1843c0.57123 0.2498 1.2763 0.45381 1.9572 0.56632 0.54435 0.08995 1.8156 0.08097 2.3623-0.01669 0.77072-0.13768 1.5505-0.38929 2.1693-0.69996 0.21226-0.10657 7.4346-3.8793 17.96-9.3819 0.56426-0.29499 1.1573-0.60635 1.3179-0.69191l0.292-0.15557v1.1161 1.1161l-4.8377 2.5289c-2.6607 1.3909-7.2526 3.7914-10.204 5.3344-2.9515 1.5431-5.4872 2.857-5.6348 2.9199-0.44119 0.18803-0.81119 0.2991-1.3095 0.3931-0.24497 0.04621-1.3802 0.08333-1.6263 0.05316z"/>
    <path transform="matrix(.28222 0 0 .28222 -88.991 136.65)" d="m37.581 52.979c-0.39762-0.0632-0.7424-0.15231-1.1412-0.29494-0.48828-0.17462-33.965-15.488-34.124-15.61-0.32007-0.24469-0.46751-0.5773-0.44789-1.0105 0.013664-0.30169 0.10645-0.53445 0.29723-0.74562 0.11768-0.13026 0.39897-0.31587 0.47958-0.31646 0.022226-1.63e-4 3.5238 1.5923 7.7813 3.5389 21.722 9.9313 25.064 11.456 25.355 11.564 0.38407 0.14317 1.0157 0.30727 1.4837 0.38548 0.48074 0.08034 1.8347 0.08146 2.3171 0.0019 0.75995-0.1253 1.4814-0.35283 2.1655-0.68291 0.24307-0.11729 2.317-1.1939 4.6088-2.3926 2.2918-1.1986 6.5107-3.4041 9.3755-4.9011 2.8647-1.497 5.3116-2.7776 5.4375-2.8459l0.22886-0.12419v1.1168 1.1168l-1.602 0.83757c-0.88112 0.46066-3.2996 1.7251-5.3743 2.8099s-5.9457 3.1086-8.6021 4.4974c-2.6564 1.3888-4.9335 2.5705-5.0602 2.6261-0.34424 0.15094-0.83949 0.30594-1.2255 0.38355-0.44674 0.08981-1.5167 0.11453-1.9533 0.04512z"/>
    <path transform="matrix(.28222 0 0 .28222 -88.991 136.65)" d="m38.023 57.348c-0.57553-0.03492-1.1882-0.17006-1.709-0.37695-0.13028-0.05175-2.7964-1.2642-5.9246-2.6944s-10.681-4.8826-16.784-7.6721c-6.1027-2.7895-11.169-5.1217-11.259-5.1827-0.18952-0.12866-0.37203-0.3768-0.43774-0.59516-0.1087-0.36119-0.032069-0.81107 0.1871-1.0984 0.10575-0.13864 0.39634-0.36038 0.5095-0.38878 0.043882-0.01101 3.7932 1.6878 11.365 5.1496 20.135 9.2053 21.491 9.8238 21.809 9.9418 0.85482 0.31756 1.6885 0.46143 2.67 0.46077 1.2486-8.49e-4 2.3285-0.26128 3.4745-0.83793 0.2182-0.10979 3.9826-2.0743 8.3653-4.3657 4.3827-2.2913 8.6753-4.5355 9.5391-4.9869l1.5705-0.82088v1.1136 1.1136l-1.5389 0.80447c-4.502 2.3534-10.955 5.7277-14.655 7.6629-2.3005 1.2032-4.3089 2.2427-4.4633 2.3099-0.82461 0.35911-1.7728 0.52074-2.7183 0.46338z"/>
    <path transform="matrix(.28222 0 0 .28222 -88.991 136.65)" d="m37.77 61.814c-0.72805-0.10728-1.2542-0.26487-1.9849-0.59447-4.0086-1.8081-33.374-15.266-33.47-15.338-0.31933-0.24308-0.46708-0.57602-0.44854-1.0108 0.020034-0.46988 0.25444-0.81076 0.71808-1.0442l0.22278-0.11219 12.367 5.654c6.8019 3.1097 14.169 6.4777 16.371 7.4844 4.2552 1.9451 4.519 2.0549 5.3291 2.2165 0.59422 0.11857 0.9673 0.15431 1.5889 0.15222 1.0617-0.0036 2.0497-0.20902 3.0046-0.62485 0.18356-0.07993 3.7448-1.9286 7.9138-4.1081 4.169-2.1795 8.5545-4.4722 9.7456-5.0948 1.1911-0.62262 2.189-1.141 2.2176-1.152 0.04778-0.01833 0.05204 0.07697 0.05204 1.1623v1.1823l-2.6595 1.3901c-3.5592 1.8604-10.903 5.6998-14.718 7.695-3.0448 1.5923-3.5473 1.8351-4.0779 1.9706-0.57064 0.1457-0.74131 0.16701-1.4148 0.1767-0.3646 0.0052-0.70553 0.0033-0.75761-0.0044z"/>
    <path transform="matrix(.28222 0 0 .28222 -88.991 136.65)" d="m37.553 66.111c-0.36045-0.058412-0.93726-0.21258-1.2281-0.32824-0.54057-0.21497-33.831-15.454-33.979-15.554-0.18944-0.12836-0.37199-0.37647-0.43774-0.59495-0.1087-0.36119-0.032069-0.81107 0.1871-1.0984 0.10641-0.13951 0.39655-0.36044 0.51112-0.38919 0.045987-0.01154 2.6242 1.1523 8.1925 3.6982 21.375 9.7729 24.688 11.284 24.967 11.388 0.38613 0.14414 0.92652 0.28746 1.4047 0.37256 0.47584 0.08468 1.5194 0.11667 2.0429 0.06264 0.84003-0.0867 1.7574-0.34872 2.5283-0.7221 0.36215-0.17541 18.768-9.7831 19.46-10.158l0.19769-0.10709-0.0083 1.1208-0.0083 1.1208-3.9301 2.0546c-2.1616 1.13-6.7568 3.5324-10.212 5.3387-3.4548 1.8063-6.3928 3.3318-6.5289 3.3901-0.32467 0.13896-0.78616 0.28107-1.1758 0.36207-0.41768 0.08682-1.561 0.11199-1.9828 0.04364z"/>
    <path transform="matrix(.28222 0 0 .28222 -88.991 136.65)" d="m37.991 70.483c-0.55907-0.040647-1.1762-0.18073-1.6831-0.38202-0.20446-0.0812-8.4528-3.8483-30.111-13.752-2.1857-0.99946-3.8471-1.7771-3.9197-1.8345-0.47253-0.37425-0.55904-1.1599-0.18213-1.6541 0.10585-0.13878 0.39637-0.36039 0.50976-0.38885 0.044245-0.01111 4.3596 1.9466 13.196 5.9865 19.569 8.9467 19.64 8.9792 19.976 9.104 0.35233 0.131 0.99555 0.30093 1.4408 0.38063 0.39816 0.07127 1.5761 0.10002 2.0228 0.04937 0.68284-0.07742 1.3964-0.2562 2.0494-0.51344 0.38523-0.15176-0.83071 0.48103 19.249-10.017l0.8606-0.44996-0.0083 1.1191-0.0083 1.1191-2.4622 1.2874c-1.3542 0.70807-5.9212 3.096-10.149 5.3065s-7.7901 4.0671-7.9165 4.1258c-0.33513 0.15563-0.92093 0.34355-1.3011 0.41738-0.29358 0.05701-1.0603 0.13635-1.1962 0.12379-0.02786-0.0026-0.19271-0.01501-0.36633-0.02763z"/>
    <path transform="matrix(.28222 0 0 .28222 -88.991 136.65)" d="m37.9 74.806c-0.43454-0.0412-0.88721-0.13758-1.3136-0.27969-0.22628-0.07541-3.3535-1.4883-8.3022-3.751-4.3665-1.9965-11.924-5.4516-16.794-7.6781-4.87-2.2265-8.9233-4.0829-9.0073-4.1253-0.20817-0.10517-0.41926-0.32437-0.52062-0.54059-0.074573-0.15909-0.08429-0.21803-0.08429-0.51128 0-0.29216 0.00986-0.35249 0.083185-0.50886 0.11409-0.24332 0.2772-0.41378 0.50976-0.53274l0.19624-0.10038 8.1917 3.7466c16.662 7.6204 24.36 11.139 24.595 11.239 1.8839 0.80803 4.1449 0.78893 6.0567-0.05116 0.13022-0.05722 4.6348-2.4024 10.01-5.2114 5.3754-2.8091 9.797-5.1164 9.8257-5.1274 0.04812-0.01847 0.05161 0.06797 0.04396 1.0916l-0.0083 1.1117-3.062 1.601c-1.6841 0.88055-6.2369 3.261-10.117 5.2899-3.8804 2.0289-7.1831 3.7482-7.3394 3.8207-0.89826 0.41676-1.9986 0.6088-2.9637 0.51729z"/>
    <path transform="matrix(.28222 0 0 .28222 -88.991 136.65)" d="m37.873 79.129c-0.40437-0.039003-0.87405-0.14109-1.2972-0.28195-0.22006-0.073261-1.4897-0.63475-3.0936-1.3682-4.4007-2.0122-14.706-6.7239-23.034-10.531-4.2624-1.9487-7.8326-3.5848-7.9339-3.6358-0.23732-0.11954-0.44614-0.32993-0.55235-0.55651-0.074573-0.15909-0.08429-0.21803-0.08429-0.51128 0-0.29426 0.00958-0.3519 0.085352-0.5136 0.10297-0.21974 0.33606-0.4548 0.54807-0.5527l0.15576-0.07193 6.3924 2.9234c19.158 8.7616 26.238 11.996 26.431 12.076 0.58795 0.24359 1.392 0.45304 2.0584 0.5362 0.50429 0.06293 1.4362 0.04832 1.9572-0.03069 1.069-0.16211 1.7016-0.38786 3.0147-1.0757 3.3532-1.7567 18.8-9.8276 18.834-9.8407 0.03686-0.01415 0.04244 0.15822 0.03544 1.0962l-0.0083 1.1129-2.9989 1.5682c-13.621 7.123-17.155 8.9676-17.457 9.1126-0.9487 0.4561-2.0092 0.6452-3.0536 0.54447z"/>
    <path transform="matrix(.28222 0 0 .28222 -88.991 136.65)" d="m61.411 66.841c-2.37e-4 -0.56861-0.0081-1.0624-0.01749-1.0973-0.01408-0.0524 0.02038-0.08349 0.19773-0.17836 0.11813-0.06319 3.8016-1.9896 8.1855-4.2809 4.3839-2.2913 8.8426-4.6218 9.9082-5.1788l1.9374-1.0128 0.1267 0.06464c0.42705 0.21786 0.68484 0.76117 0.59431 1.2525-0.07443 0.40395-0.30112 0.68904-0.7289 0.91668-0.63983 0.34048-20.177 10.548-20.189 10.548-0.0075 0-0.01391-0.46522-0.01415-1.0338z"/>
    <path transform="matrix(.28222 0 0 .28222 -88.991 136.65)" d="m61.411 62.517c-2.37e-4 -0.5686-0.0084-1.0635-0.01813-1.0998-0.016-0.0596 0.40441-0.28659 4.3804-2.365 2.419-1.2645 6.9746-3.6461 10.124-5.2924l5.7255-2.9934 0.15724 0.08558c0.28771 0.15659 0.49914 0.46484 0.56566 0.82472 0.07052 0.38148-0.04871 0.75014-0.33339 1.0308-0.18296 0.18038-0.3911 0.29336-4.3433 2.3575-2.2831 1.1924-6.8701 3.5895-10.193 5.3269-3.3232 1.7374-6.0471 3.1589-6.053 3.1589-0.0059 0-0.01096-0.46522-0.01119-1.0338z"/>
    <path transform="matrix(.28222 0 0 .28222 -88.991 136.65)" d="m61.413 58.113 7.02e-4 -1.1131 5.7524-3.0054c3.1638-1.653 7.7103-4.029 10.103-5.28l4.3507-2.2746 0.11606 0.05432c0.06383 0.02988 0.19542 0.13314 0.29243 0.22948 0.23581 0.23418 0.32179 0.45276 0.32326 0.82182 0.0015 0.37514-0.08338 0.58455-0.33904 0.83653-0.17484 0.17233-0.31594 0.25383-1.5653 0.90419-0.75525 0.39313-5.25 2.7416-9.9883 5.2187-4.7383 2.4772-8.7123 4.5528-8.8309 4.6126l-0.21579 0.10867 7.02e-4 -1.1131z"/>
    <path transform="matrix(.28222 0 0 .28222 -88.991 136.65)" d="m61.412 53.789 4.04e-4 -1.1134 1.4754-0.77022c0.81145-0.42362 5.36-2.801 10.108-5.2831l8.6326-4.5129 0.11154 0.05855c0.06135 0.03221 0.19091 0.13687 0.28792 0.23259 0.23775 0.23459 0.32407 0.45319 0.32407 0.8207 0 0.37698-0.08514 0.58585-0.34099 0.83653-0.17258 0.1691-0.31164 0.2508-1.297 0.76202-0.60704 0.31494-5.138 2.6816-10.069 5.2593-4.9308 2.5777-9.0255 4.7174-9.0993 4.755l-0.13416 0.06832 4.04e-4 -1.1134z"/>
    <path transform="matrix(.28222 0 0 .28222 -88.991 136.65)" d="m61.411 49.465c-2.37e-4 -0.61262-0.0084-1.1436-0.01819-1.18-0.01609-0.05991 0.46035-0.31605 5.0591-2.7198 2.7923-1.4595 7.2289-3.7789 9.8593-5.1543 2.6303-1.3754 4.869-2.5435 4.9749-2.5958l0.19243-0.09514 0.2115 0.10412c0.43271 0.21302 0.66171 0.58423 0.66171 1.0726 0 0.45694-0.20662 0.82078-0.58899 1.0372-0.0902 0.05105-2.1882 1.1507-4.6623 2.4438-4.9917 2.6088-15.547 8.1264-15.634 8.172-0.05212 0.0275-0.05527-0.03391-0.05567-1.0847z"/>
    <path transform="matrix(.28222 0 0 .28222 -88.991 136.65)" d="m61.413 44.983 7.31e-4 -1.1146 4.3477-2.271c2.3912-1.2491 6.9375-3.6251 10.103-5.2801l5.7552-3.0091 0.11627 0.0546c0.16072 0.07548 0.42071 0.34274 0.50646 0.52063 0.22945 0.47602 0.12214 1.0597-0.25762 1.4013-0.13195 0.11868-2.0397 1.1282-9.729 5.1481-5.2607 2.7502-9.8525 5.1499-10.204 5.3326l-0.63924 0.3322 7.3e-4 -1.1146z"/>
    <path transform="matrix(.28222 0 0 .28222 -88.991 136.65)" d="m61.413 40.657 6.61e-4 -1.1136 0.37025-0.19341c0.69037-0.36062 14.939-7.8095 17.399-9.0956l2.4445-1.2782 0.11242 0.05903c0.06183 0.03247 0.19179 0.13734 0.28879 0.23306 0.23677 0.23363 0.32247 0.45172 0.32247 0.8207 0 0.37848-0.0847 0.58728-0.33832 0.83398-0.17314 0.16841-0.33381 0.26058-1.6284 0.9341-1.2713 0.66143-4.2341 2.2097-15.705 8.2069-1.6841 0.8805-3.1082 1.6247-3.1646 1.6537l-0.10259 0.05283 6.61e-4 -1.1136z"/>
    <path transform="matrix(.28222 0 0 .28222 -88.991 136.65)" d="m61.412 36.334v-1.1154l3.8117-1.9929c2.0965-1.0961 6.6447-3.474 10.107-5.2842l6.2955-3.2913 0.13798 0.0732c0.19449 0.10318 0.43234 0.37539 0.51687 0.59155 0.09881 0.25268 0.09904 0.64621 5.3e-4 0.89804-0.08638 0.22082-0.28845 0.45011-0.51338 0.58254-0.09305 0.05479-4.5657 2.3968-9.9393 5.2044-5.3735 2.8076-9.9157 5.1824-10.094 5.2772l-0.32356 0.17239v-1.1154z"/>
    <path transform="matrix(.28222 0 0 .28222 -88.991 136.65)" d="m61.412 32.006v-1.1156l20.212-10.567 0.1393 0.0739c0.19569 0.10381 0.43345 0.37555 0.51819 0.59225 0.05375 0.13745 0.07094 0.24642 0.07094 0.44973 0 0.36757-0.08632 0.58616-0.32407 0.82057-0.15805 0.15584-0.38136 0.28094-2.1493 1.2041-5.0948 2.6603-17.915 9.3622-18.175 9.5013l-0.292 0.1561v-1.1156z"/>
    <path transform="matrix(.28222 0 0 .28222 -88.991 136.65)" d="m61.412 18.237v-10.56h0.08391c0.04615 0 3.5939 1.4577 7.8839 3.2394 4.29 1.7817 8.8086 3.6579 10.041 4.1693 1.2327 0.51144 2.3 0.96395 2.3718 1.0056 0.07178 0.04163 0.19531 0.14777 0.27452 0.23587 0.31512 0.35049 0.38463 0.88319 0.17264 1.323-0.16118 0.33442-0.2255 0.37485-2.4086 1.5141-3.7691 1.9669-17.834 9.3201-18.128 9.4772l-0.292 0.15622v-10.56z"/>
   </g>
   <path transform="matrix(.28222 0 0 .28222 -88.991 136.65)" d="m32.969 7.6125c0.08351-0.07463 11.256-5.348 11.514-5.4345 1.1794-0.3957 2.6629-0.38888 3.8229 0.017571 0.36302 0.1272 13.018 5.3739 13.064 5.4162 0.01447 0.013349-6.3755 0.02427-14.2 0.02427s-14.214-0.010578-14.2-0.023507z" stroke-width=".00063135"/>
  </g>
 </g>
</svg>
