<!-- Created with Inkscape (http://www.inkscape.org/) -->
<svg width="23.668mm" height="22.862mm" version="1.1" viewBox="0 0 23.668 22.862" xmlns="http://www.w3.org/2000/svg">
 <g transform="translate(88.991 -136.65)">
  <path d="m-65.479 142.09c0.17118-0.16748 0.26564-0.40032 0.25479-0.65008-0.01482-0.33735-0.21802-0.62733-0.5297-0.75671l-9.3133-3.8679c-0.56938-0.23628-1.215-0.22014-1.7719 0.0445l-11.661 5.5454c-0.30533 0.14525-0.49345 0.44529-0.49107 0.78343 0.0019 0.23416 0.09631 0.44741 0.25559 0.60404-0.16245 0.15981-0.25744 0.37862-0.25559 0.61728 0.0019 0.23415 0.09631 0.44741 0.25559 0.60404-0.16245 0.15981-0.25744 0.37862-0.25559 0.61727 0.0019 0.23522 0.0971 0.44926 0.25744 0.6059-0.16272 0.15981-0.25929 0.37676-0.25744 0.61542 0.0019 0.23416 0.09657 0.44767 0.25585 0.60431-0.16272 0.15954-0.2577 0.37835-0.25585 0.61701 0.0019 0.24447 0.10424 0.46699 0.27649 0.62494-0.17595 0.16113-0.27834 0.38947-0.27649 0.63871 0.0019 0.23415 0.09631 0.44741 0.25559 0.60404-0.16245 0.15981-0.25744 0.37835-0.25559 0.61727 0.0019 0.23416 0.09631 0.44741 0.25559 0.60405-0.16245 0.1598-0.25744 0.37861-0.25559 0.61727 0.0019 0.23521 0.0971 0.44926 0.25744 0.60589-0.16272 0.15955-0.25929 0.37651-0.25744 0.61543 0.0019 0.23415 0.09657 0.44767 0.25585 0.6043-0.16272 0.15955-0.2577 0.37809-0.25585 0.61701 0.0026 0.33814 0.19526 0.63553 0.50271 0.77576l9.4348 4.3135c0.29051 0.13282 0.59902 0.19897 0.90726 0.19897 0.34581 0 0.69083-0.0833 1.0086-0.24977l11.452-5.9872c0.29898-0.15637 0.47546-0.46302 0.46064-0.80037-0.0098-0.22251-0.10319-0.4228-0.25426-0.57123 0.17092-0.16775 0.26538-0.40032 0.25426-0.65008-0.0098-0.22252-0.10266-0.42334-0.25347-0.57203 0.17039-0.16749 0.26458-0.39979 0.25347-0.64929-0.0098-0.22252-0.10292-0.42281-0.254-0.5715 0.17092-0.16748 0.26511-0.40005 0.25426-0.64955-0.0098-0.22252-0.10345-0.42281-0.25479-0.57124 0.17118-0.16748 0.26564-0.40031 0.25479-0.65008-0.01032-0.23363-0.11245-0.44291-0.27675-0.59346 0.18468-0.1688 0.28813-0.4101 0.27649-0.67019-0.0098-0.22251-0.10319-0.4228-0.25426-0.57124 0.17092-0.16774 0.26538-0.40031 0.25426-0.65008-0.0098-0.22251-0.10266-0.42333-0.25347-0.57203 0.17039-0.16748 0.26458-0.39978 0.25347-0.64928-0.0098-0.22252-0.10292-0.42281-0.254-0.5715 0.17092-0.16748 0.26511-0.40005 0.25426-0.64956-0.0098-0.22251-0.10345-0.4228-0.25479-0.57123zm-22.798 0.78343 11.661-5.5451c0.2249-0.10689 0.46911-0.1606 0.71332-0.1606 0.21616 0 0.43312 0.0421 0.63659 0.12674l9.3131 3.8677c0.12594 0.0524 0.20452 0.16483 0.21061 0.30083 0.0058 0.13599-0.06244 0.25479-0.18309 0.31776l-11.452 5.9875c-0.45773 0.23919-0.98981 0.25347-1.46 0.0384l-9.4345-4.3135c-0.12409-0.0566-0.1987-0.17197-0.19976-0.30824-0.0011-0.13652 0.07197-0.25294 0.19526-0.31141zm-2.64e-4 1.2213 0.03625-0.0172 9.1877 4.2005c0.29051 0.13282 0.59902 0.19897 0.90726 0.19897 0.34581 0 0.69083-0.0833 1.0086-0.24977l11.181-5.8454 0.0034 1e-3c0.12594 0.0524 0.20452 0.16484 0.21061 0.30084 0.0058 0.13599-0.06244 0.25479-0.18309 0.31776l-11.452 5.9875c-0.45773 0.23945-0.98981 0.25374-1.46 0.0384l-9.4347-4.3132c-0.12409-0.0566-0.1987-0.17198-0.19976-0.3085-0.0011-0.13626 0.07197-0.25268 0.195-0.31115zm0 1.2213 0.03625-0.0172 9.1877 4.2005c0.29051 0.13282 0.59902 0.19897 0.90726 0.19897 0.34581 0 0.69083-0.0833 1.0086-0.24977l11.181-5.8454 0.0034 1e-3c0.12594 0.0521 0.20452 0.16457 0.21034 0.30057 0.0061 0.13599-0.06218 0.25479-0.18283 0.31803l-11.452 5.9875c-0.45773 0.23918-0.98981 0.25347-1.46 0.0384l-9.4347-4.3132c-0.12409-0.0566-0.1987-0.17198-0.19976-0.30851-0.0011-0.13626 0.07197-0.25267 0.195-0.31115zm0 1.2213 0.03625-0.0172 9.1877 4.2005c0.29051 0.13282 0.59902 0.19896 0.90726 0.19896 0.34581 0 0.69083-0.0833 1.0086-0.24976l11.181-5.8454 0.0034 1e-3c0.12594 0.0521 0.20452 0.16457 0.21034 0.30056 0.0061 0.136-0.06218 0.2548-0.18283 0.31803l-11.452 5.9875c-0.45773 0.23919-0.98981 0.25348-1.46 0.0384l-9.4347-4.3132c-0.12409-0.0566-0.1987-0.17197-0.19976-0.3085-0.0011-0.13626 0.07197-0.25268 0.195-0.31115zm0 1.2213 0.03625-0.0172 9.1877 4.2005c0.29051 0.13282 0.59902 0.19897 0.90726 0.19897 0.34581 0 0.69083-0.0833 1.0086-0.24977l11.181-5.8454 0.0034 1e-3c0.12594 0.0521 0.20452 0.16457 0.21034 0.30057 0.0061 0.13599-0.06218 0.25479-0.18283 0.31803l-11.452 5.9875c-0.45773 0.23918-0.98981 0.25373-1.46 0.0386l-9.4347-4.3135c-0.12409-0.0566-0.1987-0.17198-0.19976-0.3085-0.0011-0.13626 0.07197-0.25268 0.195-0.31115zm22.352 5.0562-11.452 5.9873c-0.45773 0.23918-0.98981 0.25374-1.46 0.0386l-9.4348-4.3138c-0.12409-0.0566-0.1987-0.17198-0.19976-0.3085-0.0011-0.13626 0.07197-0.25268 0.195-0.31115l0.03625-0.0172 9.1877 4.2005c0.29051 0.13282 0.59902 0.19897 0.90726 0.19897 0.34581 0 0.69083-0.0833 1.0086-0.24977l11.181-5.8454 0.0034 1e-3c0.12594 0.0521 0.20452 0.16458 0.21034 0.30057 0.0064 0.13653-0.06218 0.25506-0.18256 0.31856zm0-1.2213-11.452 5.9872c-0.45773 0.23919-0.98981 0.25347-1.46 0.0386l-9.4348-4.3138c-0.12409-0.0566-0.1987-0.17198-0.19976-0.30851-0.0011-0.13626 0.07197-0.25267 0.195-0.31115l0.03625-0.0172 9.1877 4.2005c0.29051 0.13282 0.59902 0.19896 0.90726 0.19896 0.34581 0 0.69083-0.0833 1.0086-0.24976l11.181-5.8452 0.0034 1e-3c0.12594 0.0521 0.20452 0.16457 0.21034 0.30057 0.0064 0.13626-0.06218 0.25479-0.18256 0.31829zm0-1.2213-11.452 5.9873c-0.45773 0.23918-0.98981 0.25347-1.46 0.0384l-9.4348-4.3135c-0.12409-0.0566-0.1987-0.17198-0.19976-0.3085-0.0011-0.13626 0.07197-0.25268 0.195-0.31115l0.03625-0.0172 9.1877 4.2005c0.29051 0.13282 0.59902 0.19897 0.90726 0.19897 0.34581 0 0.69083-0.0833 1.0086-0.24977l11.181-5.8454 0.0034 1e-3c0.12594 0.0521 0.20452 0.16457 0.21034 0.30057 0.0061 0.13652-0.06244 0.25506-0.18283 0.31856zm0-1.2216-11.452 5.9875c-0.45773 0.23945-0.98981 0.25374-1.46 0.0384l-9.4348-4.3132c-0.12409-0.0566-0.1987-0.17198-0.19976-0.30851-0.0011-0.13626 0.07197-0.25267 0.195-0.31115l0.03625-0.0172 9.1877 4.2005c0.29051 0.13282 0.59902 0.19897 0.90726 0.19897 0.34581 0 0.69083-0.0833 1.0086-0.24977l11.181-5.8454 0.0034 1e-3c0.12594 0.0524 0.20452 0.16483 0.21061 0.30083 0.0058 0.136-0.06271 0.25479-0.18309 0.31776zm0-1.2213-11.452 5.9875c-0.45773 0.23919-0.98981 0.25347-1.46 0.0384l-9.4348-4.3132c-0.12409-0.0566-0.1987-0.17198-0.19976-0.30824-0.0011-0.13626 0.07197-0.25268 0.195-0.31115l0.08149-0.0389 9.1421 4.1796c0.29051 0.13283 0.59902 0.19897 0.90726 0.19897 0.34581 0 0.69083-0.0833 1.0086-0.24977l11.136-5.8219 0.04842 0.0201c0.12594 0.0524 0.20452 0.16484 0.21061 0.30083 0.0061 0.136-0.06244 0.2548-0.18283 0.31777z" stroke-width=".26458"/>
 </g>
</svg>
