<svg width="60.104" height="46.42" clip-rule="evenodd" fill-rule="evenodd" image-rendering="optimizeQuality" shape-rendering="geometricPrecision" text-rendering="geometricPrecision" version="1.1" viewBox="0 0 60.104 46.42" xml:space="preserve" xmlns="http://www.w3.org/2000/svg"><defs><style type="text/css">
   
    .fil0 {fill:black;fill-rule:nonzero}
   
  </style><clipPath id="clipPath5177"><path d="m6.8 64.21-3.0313-1.7439-1.9195-2.7036-0.26024-56.319 95.736 0.92691-1.4566 50.583-3.0094 1.7667-1.8258 1.1002-5.8052 4.0964-39.942 20.645-35.818-15.757-2.5821-2.3835" fill="none" stroke="#000" stroke-width=".01"/></clipPath></defs><g transform="translate(26.45 20.592)"><path transform="matrix(.66908 0 0 .66908 -29.1 -29.212)" d="m92.825 33.448c0.647-0.633 1.004-1.513 0.963-2.457-0.056-1.275-0.824-2.371-2.002-2.86l-35.2-14.619c-2.152-0.893-4.592-0.832-6.697 0.168l-44.072 20.959c-1.154 0.549-1.865 1.683-1.856 2.961 7e-3 0.885 0.364 1.691 0.966 2.283-0.614 0.604-0.973 1.431-0.966 2.333 7e-3 0.885 0.364 1.691 0.966 2.283-0.614 0.604-0.973 1.431-0.966 2.333 7e-3 0.889 0.367 1.698 0.973 2.29-0.615 0.604-0.98 1.424-0.973 2.326 7e-3 0.885 0.365 1.692 0.967 2.284-0.615 0.603-0.974 1.43-0.967 2.332 7e-3 0.924 0.394 1.765 1.045 2.362-0.665 0.609-1.052 1.472-1.045 2.414 7e-3 0.885 0.364 1.691 0.966 2.283-0.614 0.604-0.973 1.43-0.966 2.333 7e-3 0.885 0.364 1.691 0.966 2.283-0.614 0.604-0.973 1.431-0.966 2.333 7e-3 0.889 0.367 1.698 0.973 2.29-0.615 0.603-0.98 1.423-0.973 2.326 7e-3 0.885 0.365 1.692 0.967 2.284-0.615 0.603-0.974 1.429-0.967 2.332 0.01 1.278 0.738 2.402 1.9 2.932l35.659 16.303c1.098 0.502 2.264 0.752 3.429 0.752 1.307 0 2.611-0.315 3.812-0.944l43.285-22.629c1.13-0.591 1.797-1.75 1.741-3.025-0.037-0.841-0.39-1.598-0.961-2.159 0.646-0.634 1.003-1.513 0.961-2.457-0.037-0.841-0.388-1.6-0.958-2.162 0.644-0.633 1-1.511 0.958-2.454-0.037-0.841-0.389-1.598-0.96-2.16 0.646-0.633 1.002-1.512 0.961-2.455-0.037-0.841-0.391-1.598-0.963-2.159 0.647-0.633 1.004-1.513 0.963-2.457-0.039-0.883-0.425-1.674-1.046-2.243 0.698-0.638 1.089-1.55 1.045-2.533-0.037-0.841-0.39-1.598-0.961-2.159 0.646-0.634 1.003-1.513 0.961-2.457-0.037-0.841-0.388-1.6-0.958-2.162 0.644-0.633 1-1.511 0.958-2.454-0.037-0.841-0.389-1.598-0.96-2.16 0.646-0.633 1.002-1.512 0.961-2.455-0.037-0.841-0.391-1.598-0.963-2.159zm-86.166 2.961 44.073-20.958c0.85-0.404 1.773-0.607 2.696-0.607 0.817 0 1.637 0.159 2.406 0.479l35.199 14.618c0.476 0.198 0.773 0.623 0.796 1.137 0.022 0.514-0.236 0.963-0.692 1.201l-43.285 22.63c-1.73 0.904-3.741 0.958-5.518 0.145l-35.658-16.303c-0.469-0.214-0.751-0.65-0.755-1.165-4e-3 -0.516 0.272-0.956 0.738-1.177zm-1e-3 4.616 0.137-0.065 34.725 15.876c1.098 0.502 2.264 0.752 3.429 0.752 1.307 0 2.611-0.315 3.812-0.944l42.26-22.093 0.013 5e-3c0.476 0.198 0.773 0.623 0.796 1.137 0.022 0.514-0.236 0.963-0.692 1.201l-43.285 22.63c-1.73 0.905-3.741 0.959-5.518 0.145l-35.659-16.302c-0.469-0.214-0.751-0.65-0.755-1.166-4e-3 -0.515 0.272-0.955 0.737-1.176zm0 4.616 0.137-0.065 34.725 15.876c1.098 0.502 2.264 0.752 3.429 0.752 1.307 0 2.611-0.315 3.812-0.944l42.26-22.093 0.013 5e-3c0.476 0.197 0.773 0.622 0.795 1.136 0.023 0.514-0.235 0.963-0.691 1.202l-43.285 22.63c-1.73 0.904-3.741 0.958-5.518 0.145l-35.659-16.302c-0.469-0.214-0.751-0.65-0.755-1.166-4e-3 -0.515 0.272-0.955 0.737-1.176zm0 4.616 0.137-0.065 34.725 15.876c1.098 0.502 2.264 0.752 3.429 0.752 1.307 0 2.611-0.315 3.812-0.944l42.259-22.093 0.013 5e-3c0.476 0.197 0.773 0.622 0.795 1.136 0.023 0.514-0.235 0.963-0.691 1.202l-43.284 22.63c-1.73 0.904-3.741 0.958-5.518 0.145l-35.659-16.302c-0.469-0.214-0.751-0.65-0.755-1.166-4e-3 -0.515 0.272-0.955 0.737-1.176zm0 4.616 0.137-0.065 34.725 15.876c1.098 0.502 2.264 0.752 3.429 0.752 1.307 0 2.611-0.315 3.812-0.944l42.259-22.093 0.013 5e-3c0.476 0.197 0.773 0.622 0.795 1.136 0.023 0.514-0.235 0.963-0.691 1.202l-43.284 22.63c-1.73 0.904-3.741 0.959-5.518 0.146l-35.659-16.303c-0.469-0.214-0.751-0.65-0.755-1.166-4e-3 -0.515 0.272-0.955 0.737-1.176zm0.018 25.581c-0.469-0.214-0.751-0.65-0.755-1.166-4e-3 -0.515 0.272-0.955 0.737-1.176l0.137-0.065 34.725 15.876c1.098 0.502 2.264 0.752 3.429 0.752 1.307 0 2.611-0.315 3.812-0.944l42.259-22.093 0.013 5e-3c0.476 0.197 0.773 0.622 0.795 1.136 0.024 0.516-0.235 0.964-0.69 1.204l-43.285 22.629c-1.73 0.904-3.741 0.959-5.518 0.146l-35.659-16.304m84.462-11.087-43.285 22.629c-1.73 0.904-3.741 0.958-5.518 0.146l-35.659-16.304c-0.469-0.214-0.751-0.65-0.755-1.166-4e-3 -0.515 0.272-0.955 0.737-1.176l0.137-0.065 34.725 15.876c1.098 0.502 2.264 0.752 3.429 0.752 1.307 0 2.611-0.315 3.812-0.944l42.259-22.092 0.013 5e-3c0.476 0.197 0.773 0.622 0.795 1.136 0.024 0.515-0.235 0.963-0.69 1.203zm0-4.616-43.285 22.629c-1.73 0.904-3.741 0.958-5.518 0.145l-35.659-16.303c-0.469-0.214-0.751-0.65-0.755-1.166-4e-3 -0.515 0.272-0.955 0.737-1.176l0.137-0.065 34.725 15.876c1.098 0.502 2.264 0.752 3.429 0.752 1.307 0 2.611-0.315 3.812-0.944l42.26-22.093 0.013 5e-3c0.476 0.197 0.773 0.622 0.795 1.136 0.023 0.516-0.236 0.964-0.691 1.204zm0-4.617-43.285 22.63c-1.73 0.905-3.741 0.959-5.518 0.145l-35.659-16.302c-0.469-0.214-0.751-0.65-0.755-1.166-4e-3 -0.515 0.272-0.955 0.737-1.176l0.137-0.065 34.725 15.876c1.098 0.502 2.264 0.752 3.429 0.752 1.307 0 2.611-0.315 3.812-0.944l42.26-22.093 0.013 5e-3c0.476 0.198 0.773 0.623 0.796 1.137 0.022 0.514-0.237 0.963-0.692 1.201zm0-4.616-43.285 22.63c-1.73 0.904-3.741 0.958-5.518 0.145l-35.659-16.302c-0.469-0.214-0.751-0.65-0.755-1.165s0.272-0.955 0.737-1.176l0.308-0.147 34.553 15.797c1.098 0.502 2.264 0.752 3.429 0.752 1.307 0 2.611-0.315 3.812-0.944l42.09-22.004 0.183 0.076c0.476 0.198 0.773 0.623 0.796 1.137s-0.236 0.963-0.691 1.201z" clip-path="url(#clipPath5177)"/></g><g transform="translate(27.032 21.062)"><g transform="matrix(.2592 0 0 .2592 -8.6977 -264.98)" fill="#008000" stroke="#000"><path d="m88.273 963.86c-18.609 13.682-40.381 28.715-53.682 46.57-2.0914-3.793-4.7088-7.9221-8.6674-10.875-2.748-2.0496-6.2518-3.4064-10.034-2.8205-6.5724 2.0088-9.4225 5.2513-13.389 9.9658 5.8964 3.3319 10.522 8.9712 13.731 13.507 4.725 6.9125 8.1544 13.382 11.526 20.652 4.8829-5.1034 12.077-8.3989 18.08-10.53 9.9101-25.711 32.36-43.804 51.663-60.296-3.0771-2.0825-6.5112-4.2996-9.2266-6.1737zm-6.6792 12.679c-15.844 13.76-34.659 31.041-40.51 49.215-4.1964 1.6987-7.6864 3.3901-11.339 5.5783-2.4108-4.7445-5.3252-9.8464-8.6364-14.573-3.0467-4.3487-6.1951-8.2751-9.413-11.063 1.9497-1.7142 3.7071-2.8249 5.0948-3.04 1.9459-0.3013 3.7002 0.3128 5.5919 1.7237 5.5083 4.9644 8.4605 11.419 11.65 17.895 11.212-18.45 31.943-34.133 47.562-45.737z" color="#000000" fill="#008000" overflow="visible" stroke="#000" style="block-progression:tb;text-indent:0;text-transform:none"/></g><g stroke="#00d900"><path d="m-1.0189 1.9661c-0.34484-0.70476-1.1968-2.1542-1.776-3.0215-0.82018-1.2282-1.4909-2.077-2.2496-2.847l-0.4021-0.40808 0.25922-0.19308c0.70141-0.52245 1.1642-0.58949 1.8176-0.26332 0.24984 0.1247 0.33242 0.18941 0.66358 0.51998 0.4287 0.42794 0.7421 0.81274 1.1 1.3506 0.39229 0.58958 0.54538 0.86339 1.15 2.0567l0.56922 1.1236 0.13532-0.21731c1.8182-2.9199 4.4111-5.6386 8.5021-8.9146 0.30446-0.24381 0.56021-0.44329 0.56834-0.44329 0.00816 0-0.58679 0.60117-1.322 1.3359-1.8063 1.8051-2.7716 2.9046-3.8205 4.3516-1.001 1.3809-1.8882 3.0229-2.2879 4.2344l-0.05152 0.15625-0.44494 0.18695c-0.67064 0.28178-1.9011 0.89715-2.259 1.1298-0.05992 0.03896-0.06976 0.03-0.15172-0.13755z" fill="#008000" stroke-width=".013406"/><path d="m-1.9711 3.5221c-1.8243-3.6695-3.6278-6.0855-5.4927-7.3581l-0.37461-0.25562 0.47523-0.52852c0.68487-0.76166 1.2196-1.1843 1.9228-1.5196 0.58775-0.28028 0.92161-0.37158 1.3477-0.36853 1.5074 0.0108 2.8772 1.1021 4.112 3.2761l0.23508 0.4139 0.09156-0.12605c0.64216-0.88406 1.6203-2.0058 2.6769-3.07 2.1774-2.193 4.4988-4.0855 9.4797-7.7285 0.87504-0.64001 1.6116-1.1795 1.6368-1.1989 0.0436-0.03352 2.1538 1.3334 2.1718 1.4068 0.0045 0.01848-0.38024 0.36176-0.8551 0.76282-2.4878 2.1012-4.0487 3.5068-5.5214 4.9718-1.2422 1.2358-1.804 1.8412-2.6494 2.8556-1.7795 2.135-3.1146 4.2817-4.0368 6.4904l-0.17486 0.41878-0.56674 0.22475c-1.4963 0.59338-2.6667 1.2495-3.4983 1.9611-0.18716 0.16014-0.36978 0.31431-0.40582 0.3426-0.05536 0.04344-0.14445-0.1073-0.57377-0.97086zm1.4608-1.2933c0.59223-0.33986 1.1124-0.59684 1.9569-0.96685l0.61137-0.26786 0.1949-0.53018c0.67773-1.8436 2.0125-3.9168 3.9551-6.1428 1.0856-1.244 3.4638-3.5555 5.477-5.3233 0.44968-0.39486 0.8233-0.74206 0.83028-0.77154 7e-3 -0.02952-0.02352-0.08636-0.06776-0.12639-0.07592-0.06872-0.14224-0.02648-1.1925 0.7603-5.4792 4.1047-8.8272 7.328-10.875 10.47l-0.24148 0.37046-0.4925-0.96626c-0.79779-1.5652-1.4026-2.4545-2.1749-3.1981-0.47662-0.45884-0.73896-0.62344-1.1693-0.73369-0.61446-0.15742-1.1706 0.03888-1.9303 0.68149l-0.23284 0.19692 0.60879 0.6237c0.67686 0.69343 1.0942 1.1982 1.7576 2.1258 0.75154 1.0508 1.6776 2.579 2.2027 3.6348 0.12408 0.2495 0.23706 0.45362 0.25107 0.45362 0.014 0 0.2531-0.13062 0.5313-0.29028z" fill="#73b841" stroke-width=".018959"/><path d="m-1.0428 1.8794c-1.0314-1.9366-2.1501-3.6613-3.1583-4.869-0.16333-0.19566-0.49976-0.57157-0.74762-0.83536-0.24786-0.26379-0.44285-0.49226-0.4333-0.50771 0.03528-0.05712 0.58636-0.41646 0.74891-0.48835 0.43813-0.19376 0.81677-0.16106 1.3422 0.11593 0.23061 0.12158 0.82594 0.6996 1.1838 1.1494 0.54464 0.68455 0.93854 1.3458 1.689 2.8355 0.27914 0.55406 0.51594 1.0076 0.52622 1.0078 0.01032 2.504e-4 0.11495-0.15074 0.2326-0.33551 0.74278-1.1665 1.6267-2.3255 2.6515-3.4766 0.48828-0.54845 2.0525-2.1132 2.691-2.6919 1.0735-0.97293 3.1806-2.7484 3.2169-2.7106 0.00624 0.0065-0.38151 0.41259-0.86163 0.90243-1.9793 2.0194-2.6553 2.7787-3.6095 4.0539-1.1169 1.4927-2.0566 3.1653-2.5137 4.4744l-0.094344 0.27016-0.42822 0.18411c-0.54162 0.23286-1.656 0.77736-2.0145 0.98434-0.1506 0.086936-0.28042 0.15806-0.28848 0.15806-0.00808 0-0.06768-0.099512-0.13244-0.22113z" fill="#73b841" opacity=".807" stroke-width=".013406"/></g></g></svg>
