<svg width="89.83" height="69.678" enable-background="new 0 0 100 100" version="1.1" viewBox="0 0 89.83 69.678" xml:space="preserve" xmlns="http://www.w3.org/2000/svg"><defs><clipPath id="clipPath5177"><path d="m6.8 64.21-3.0313-1.7439-1.9195-2.7036-0.26024-56.319 95.736 0.92691-1.4566 50.583-3.0094 1.7667-1.8258 1.1002-5.8052 4.0964-39.942 20.645-35.818-15.757-2.5821-2.3835" fill="none" stroke="#000" stroke-width=".01"/></clipPath></defs><g transform="translate(-3.9606 -12.883)"><path d="m92.825 33.448c0.647-0.633 1.004-1.513 0.963-2.457-0.056-1.275-0.824-2.371-2.002-2.86l-35.2-14.619c-2.152-0.893-4.592-0.832-6.697 0.168l-44.072 20.959c-1.154 0.549-1.865 1.683-1.856 2.961 7e-3 0.885 0.364 1.691 0.966 2.283-0.614 0.604-0.973 1.431-0.966 2.333 7e-3 0.885 0.364 1.691 0.966 2.283-0.614 0.604-0.973 1.431-0.966 2.333 7e-3 0.889 0.367 1.698 0.973 2.29-0.615 0.604-0.98 1.424-0.973 2.326 7e-3 0.885 0.365 1.692 0.967 2.284-0.615 0.603-0.974 1.43-0.967 2.332 7e-3 0.924 0.394 1.765 1.045 2.362-0.665 0.609-1.052 1.472-1.045 2.414 7e-3 0.885 0.364 1.691 0.966 2.283-0.614 0.604-0.973 1.43-0.966 2.333 7e-3 0.885 0.364 1.691 0.966 2.283-0.614 0.604-0.973 1.431-0.966 2.333 7e-3 0.889 0.367 1.698 0.973 2.29-0.615 0.603-0.98 1.423-0.973 2.326 7e-3 0.885 0.365 1.692 0.967 2.284-0.615 0.603-0.974 1.429-0.967 2.332 0.01 1.278 0.738 2.402 1.9 2.932l35.659 16.303c1.098 0.502 2.264 0.752 3.429 0.752 1.307 0 2.611-0.315 3.812-0.944l43.285-22.629c1.13-0.591 1.797-1.75 1.741-3.025-0.037-0.841-0.39-1.598-0.961-2.159 0.646-0.634 1.003-1.513 0.961-2.457-0.037-0.841-0.388-1.6-0.958-2.162 0.644-0.633 1-1.511 0.958-2.454-0.037-0.841-0.389-1.598-0.96-2.16 0.646-0.633 1.002-1.512 0.961-2.455-0.037-0.841-0.391-1.598-0.963-2.159 0.647-0.633 1.004-1.513 0.963-2.457-0.039-0.883-0.425-1.674-1.046-2.243 0.698-0.638 1.089-1.55 1.045-2.533-0.037-0.841-0.39-1.598-0.961-2.159 0.646-0.634 1.003-1.513 0.961-2.457-0.037-0.841-0.388-1.6-0.958-2.162 0.644-0.633 1-1.511 0.958-2.454-0.037-0.841-0.389-1.598-0.96-2.16 0.646-0.633 1.002-1.512 0.961-2.455-0.037-0.841-0.391-1.598-0.963-2.159zm-86.166 2.961 44.073-20.958c0.85-0.404 1.773-0.607 2.696-0.607 0.817 0 1.637 0.159 2.406 0.479l35.199 14.618c0.476 0.198 0.773 0.623 0.796 1.137 0.022 0.514-0.236 0.963-0.692 1.201l-43.285 22.63c-1.73 0.904-3.741 0.958-5.518 0.145l-35.658-16.303c-0.469-0.214-0.751-0.65-0.755-1.165-4e-3 -0.516 0.272-0.956 0.738-1.177zm-1e-3 4.616 0.137-0.065 34.725 15.876c1.098 0.502 2.264 0.752 3.429 0.752 1.307 0 2.611-0.315 3.812-0.944l42.26-22.093 0.013 5e-3c0.476 0.198 0.773 0.623 0.796 1.137 0.022 0.514-0.236 0.963-0.692 1.201l-43.285 22.63c-1.73 0.905-3.741 0.959-5.518 0.145l-35.659-16.302c-0.469-0.214-0.751-0.65-0.755-1.166-4e-3 -0.515 0.272-0.955 0.737-1.176zm0 4.616 0.137-0.065 34.725 15.876c1.098 0.502 2.264 0.752 3.429 0.752 1.307 0 2.611-0.315 3.812-0.944l42.26-22.093 0.013 5e-3c0.476 0.197 0.773 0.622 0.795 1.136 0.023 0.514-0.235 0.963-0.691 1.202l-43.285 22.63c-1.73 0.904-3.741 0.958-5.518 0.145l-35.659-16.302c-0.469-0.214-0.751-0.65-0.755-1.166-4e-3 -0.515 0.272-0.955 0.737-1.176zm0 4.616 0.137-0.065 34.725 15.876c1.098 0.502 2.264 0.752 3.429 0.752 1.307 0 2.611-0.315 3.812-0.944l42.259-22.093 0.013 5e-3c0.476 0.197 0.773 0.622 0.795 1.136 0.023 0.514-0.235 0.963-0.691 1.202l-43.284 22.63c-1.73 0.904-3.741 0.958-5.518 0.145l-35.659-16.302c-0.469-0.214-0.751-0.65-0.755-1.166-4e-3 -0.515 0.272-0.955 0.737-1.176zm0 4.616 0.137-0.065 34.725 15.876c1.098 0.502 2.264 0.752 3.429 0.752 1.307 0 2.611-0.315 3.812-0.944l42.259-22.093 0.013 5e-3c0.476 0.197 0.773 0.622 0.795 1.136 0.023 0.514-0.235 0.963-0.691 1.202l-43.284 22.63c-1.73 0.904-3.741 0.959-5.518 0.146l-35.659-16.303c-0.469-0.214-0.751-0.65-0.755-1.166-4e-3 -0.515 0.272-0.955 0.737-1.176zm0.018 25.581c-0.469-0.214-0.751-0.65-0.755-1.166-4e-3 -0.515 0.272-0.955 0.737-1.176l0.137-0.065 34.725 15.876c1.098 0.502 2.264 0.752 3.429 0.752 1.307 0 2.611-0.315 3.812-0.944l42.259-22.093 0.013 5e-3c0.476 0.197 0.773 0.622 0.795 1.136 0.024 0.516-0.235 0.964-0.69 1.204l-43.285 22.629c-1.73 0.904-3.741 0.959-5.518 0.146l-35.659-16.304m84.462-11.087-43.285 22.629c-1.73 0.904-3.741 0.958-5.518 0.146l-35.659-16.304c-0.469-0.214-0.751-0.65-0.755-1.166-4e-3 -0.515 0.272-0.955 0.737-1.176l0.137-0.065 34.725 15.876c1.098 0.502 2.264 0.752 3.429 0.752 1.307 0 2.611-0.315 3.812-0.944l42.259-22.092 0.013 5e-3c0.476 0.197 0.773 0.622 0.795 1.136 0.024 0.515-0.235 0.963-0.69 1.203zm0-4.616-43.285 22.629c-1.73 0.904-3.741 0.958-5.518 0.145l-35.659-16.303c-0.469-0.214-0.751-0.65-0.755-1.166-4e-3 -0.515 0.272-0.955 0.737-1.176l0.137-0.065 34.725 15.876c1.098 0.502 2.264 0.752 3.429 0.752 1.307 0 2.611-0.315 3.812-0.944l42.26-22.093 0.013 5e-3c0.476 0.197 0.773 0.622 0.795 1.136 0.023 0.516-0.236 0.964-0.691 1.204zm0-4.617-43.285 22.63c-1.73 0.905-3.741 0.959-5.518 0.145l-35.659-16.302c-0.469-0.214-0.751-0.65-0.755-1.166-4e-3 -0.515 0.272-0.955 0.737-1.176l0.137-0.065 34.725 15.876c1.098 0.502 2.264 0.752 3.429 0.752 1.307 0 2.611-0.315 3.812-0.944l42.26-22.093 0.013 5e-3c0.476 0.198 0.773 0.623 0.796 1.137 0.022 0.514-0.237 0.963-0.692 1.201zm0-4.616-43.285 22.63c-1.73 0.904-3.741 0.958-5.518 0.145l-35.659-16.302c-0.469-0.214-0.751-0.65-0.755-1.165s0.272-0.955 0.737-1.176l0.308-0.147 34.553 15.797c1.098 0.502 2.264 0.752 3.429 0.752 1.307 0 2.611-0.315 3.812-0.944l42.09-22.004 0.183 0.076c0.476 0.198 0.773 0.623 0.796 1.137s-0.236 0.963-0.691 1.201z" clip-path="url(#clipPath5177)"/><path d="m68.612 21.808s-9.7505 1.8194-23.003 13.735l-11.298-7.5787 7.8427 10.848c-1.8756 1.8608-3.8028 3.9095-5.7726 6.1902l-2.515 0.09311 5.2164 6.0548s2.4279-3.532 6.0896-8.1628l5.4297 7.5107 7.1325-6.8215-8.4635-5.6775c5.9089-6.9051 13.343-14.317 19.34-16.191z" fill="#f00" opacity=".802"/></g></svg>
