<svg width="89.83" height="69.678" enable-background="new 0 0 100 100" version="1.1" viewBox="0 0 89.83 69.678" xml:space="preserve" xmlns="http://www.w3.org/2000/svg"><defs><clipPath id="clipPath5177"><path d="m6.8 64.21-3.0313-1.7439-1.9195-2.7036-0.26024-56.319 95.736 0.92691-1.4566 50.583-3.0094 1.7667-1.8258 1.1002-5.8052 4.0964-39.942 20.645-35.818-15.757-2.5821-2.3835" fill="none" stroke="#000" stroke-width=".01"/></clipPath></defs><g transform="translate(-3.9606 -12.883)"><path d="m92.825 33.448c0.647-0.633 1.004-1.513 0.963-2.457-0.056-1.275-0.824-2.371-2.002-2.86l-35.2-14.619c-2.152-0.893-4.592-0.832-6.697 0.168l-44.072 20.959c-1.154 0.549-1.865 1.683-1.856 2.961 7e-3 0.885 0.364 1.691 0.966 2.283-0.614 0.604-0.973 1.431-0.966 2.333 7e-3 0.885 0.364 1.691 0.966 2.283-0.614 0.604-0.973 1.431-0.966 2.333 7e-3 0.889 0.367 1.698 0.973 2.29-0.615 0.604-0.98 1.424-0.973 2.326 7e-3 0.885 0.365 1.692 0.967 2.284-0.615 0.603-0.974 1.43-0.967 2.332 7e-3 0.924 0.394 1.765 1.045 2.362-0.665 0.609-1.052 1.472-1.045 2.414 7e-3 0.885 0.364 1.691 0.966 2.283-0.614 0.604-0.973 1.43-0.966 2.333 7e-3 0.885 0.364 1.691 0.966 2.283-0.614 0.604-0.973 1.431-0.966 2.333 7e-3 0.889 0.367 1.698 0.973 2.29-0.615 0.603-0.98 1.423-0.973 2.326 7e-3 0.885 0.365 1.692 0.967 2.284-0.615 0.603-0.974 1.429-0.967 2.332 0.01 1.278 0.738 2.402 1.9 2.932l35.659 16.303c1.098 0.502 2.264 0.752 3.429 0.752 1.307 0 2.611-0.315 3.812-0.944l43.285-22.629c1.13-0.591 1.797-1.75 1.741-3.025-0.037-0.841-0.39-1.598-0.961-2.159 0.646-0.634 1.003-1.513 0.961-2.457-0.037-0.841-0.388-1.6-0.958-2.162 0.644-0.633 1-1.511 0.958-2.454-0.037-0.841-0.389-1.598-0.96-2.16 0.646-0.633 1.002-1.512 0.961-2.455-0.037-0.841-0.391-1.598-0.963-2.159 0.647-0.633 1.004-1.513 0.963-2.457-0.039-0.883-0.425-1.674-1.046-2.243 0.698-0.638 1.089-1.55 1.045-2.533-0.037-0.841-0.39-1.598-0.961-2.159 0.646-0.634 1.003-1.513 0.961-2.457-0.037-0.841-0.388-1.6-0.958-2.162 0.644-0.633 1-1.511 0.958-2.454-0.037-0.841-0.389-1.598-0.96-2.16 0.646-0.633 1.002-1.512 0.961-2.455-0.037-0.841-0.391-1.598-0.963-2.159zm-86.166 2.961 44.073-20.958c0.85-0.404 1.773-0.607 2.696-0.607 0.817 0 1.637 0.159 2.406 0.479l35.199 14.618c0.476 0.198 0.773 0.623 0.796 1.137 0.022 0.514-0.236 0.963-0.692 1.201l-43.285 22.63c-1.73 0.904-3.741 0.958-5.518 0.145l-35.658-16.303c-0.469-0.214-0.751-0.65-0.755-1.165-4e-3 -0.516 0.272-0.956 0.738-1.177zm-1e-3 4.616 0.137-0.065 34.725 15.876c1.098 0.502 2.264 0.752 3.429 0.752 1.307 0 2.611-0.315 3.812-0.944l42.26-22.093 0.013 5e-3c0.476 0.198 0.773 0.623 0.796 1.137 0.022 0.514-0.236 0.963-0.692 1.201l-43.285 22.63c-1.73 0.905-3.741 0.959-5.518 0.145l-35.659-16.302c-0.469-0.214-0.751-0.65-0.755-1.166-4e-3 -0.515 0.272-0.955 0.737-1.176zm0 4.616 0.137-0.065 34.725 15.876c1.098 0.502 2.264 0.752 3.429 0.752 1.307 0 2.611-0.315 3.812-0.944l42.26-22.093 0.013 5e-3c0.476 0.197 0.773 0.622 0.795 1.136 0.023 0.514-0.235 0.963-0.691 1.202l-43.285 22.63c-1.73 0.904-3.741 0.958-5.518 0.145l-35.659-16.302c-0.469-0.214-0.751-0.65-0.755-1.166-4e-3 -0.515 0.272-0.955 0.737-1.176zm0 4.616 0.137-0.065 34.725 15.876c1.098 0.502 2.264 0.752 3.429 0.752 1.307 0 2.611-0.315 3.812-0.944l42.259-22.093 0.013 5e-3c0.476 0.197 0.773 0.622 0.795 1.136 0.023 0.514-0.235 0.963-0.691 1.202l-43.284 22.63c-1.73 0.904-3.741 0.958-5.518 0.145l-35.659-16.302c-0.469-0.214-0.751-0.65-0.755-1.166-4e-3 -0.515 0.272-0.955 0.737-1.176zm0 4.616 0.137-0.065 34.725 15.876c1.098 0.502 2.264 0.752 3.429 0.752 1.307 0 2.611-0.315 3.812-0.944l42.259-22.093 0.013 5e-3c0.476 0.197 0.773 0.622 0.795 1.136 0.023 0.514-0.235 0.963-0.691 1.202l-43.284 22.63c-1.73 0.904-3.741 0.959-5.518 0.146l-35.659-16.303c-0.469-0.214-0.751-0.65-0.755-1.166-4e-3 -0.515 0.272-0.955 0.737-1.176zm0.018 25.581c-0.469-0.214-0.751-0.65-0.755-1.166-4e-3 -0.515 0.272-0.955 0.737-1.176l0.137-0.065 34.725 15.876c1.098 0.502 2.264 0.752 3.429 0.752 1.307 0 2.611-0.315 3.812-0.944l42.259-22.093 0.013 5e-3c0.476 0.197 0.773 0.622 0.795 1.136 0.024 0.516-0.235 0.964-0.69 1.204l-43.285 22.629c-1.73 0.904-3.741 0.959-5.518 0.146l-35.659-16.304m84.462-11.087-43.285 22.629c-1.73 0.904-3.741 0.958-5.518 0.146l-35.659-16.304c-0.469-0.214-0.751-0.65-0.755-1.166-4e-3 -0.515 0.272-0.955 0.737-1.176l0.137-0.065 34.725 15.876c1.098 0.502 2.264 0.752 3.429 0.752 1.307 0 2.611-0.315 3.812-0.944l42.259-22.092 0.013 5e-3c0.476 0.197 0.773 0.622 0.795 1.136 0.024 0.515-0.235 0.963-0.69 1.203zm0-4.616-43.285 22.629c-1.73 0.904-3.741 0.958-5.518 0.145l-35.659-16.303c-0.469-0.214-0.751-0.65-0.755-1.166-4e-3 -0.515 0.272-0.955 0.737-1.176l0.137-0.065 34.725 15.876c1.098 0.502 2.264 0.752 3.429 0.752 1.307 0 2.611-0.315 3.812-0.944l42.26-22.093 0.013 5e-3c0.476 0.197 0.773 0.622 0.795 1.136 0.023 0.516-0.236 0.964-0.691 1.204zm0-4.617-43.285 22.63c-1.73 0.905-3.741 0.959-5.518 0.145l-35.659-16.302c-0.469-0.214-0.751-0.65-0.755-1.166-4e-3 -0.515 0.272-0.955 0.737-1.176l0.137-0.065 34.725 15.876c1.098 0.502 2.264 0.752 3.429 0.752 1.307 0 2.611-0.315 3.812-0.944l42.26-22.093 0.013 5e-3c0.476 0.198 0.773 0.623 0.796 1.137 0.022 0.514-0.237 0.963-0.692 1.201zm0-4.616-43.285 22.63c-1.73 0.904-3.741 0.958-5.518 0.145l-35.659-16.302c-0.469-0.214-0.751-0.65-0.755-1.165s0.272-0.955 0.737-1.176l0.308-0.147 34.553 15.797c1.098 0.502 2.264 0.752 3.429 0.752 1.307 0 2.611-0.315 3.812-0.944l42.09-22.004 0.183 0.076c0.476 0.198 0.773 0.623 0.796 1.137s-0.236 0.963-0.691 1.201z" clip-path="url(#clipPath5177)"/><path d="m68.612 21.808s-9.7505 1.8194-23.003 13.735l-11.298-7.5787 7.8427 10.848c-1.8756 1.8608-3.8028 3.9095-5.7726 6.1902l-2.515 0.09311 5.2164 6.0548s2.4279-3.532 6.0896-8.1628l5.4297 7.5107 7.1325-6.8215-8.4635-5.6775c5.9089-6.9051 13.343-14.317 19.34-16.191z" fill="#f00" opacity=".802"/><g fill="#fff" stroke="#ff0" stroke-linecap="round" stroke-linejoin="round"><path transform="translate(3.9606 12.883)" d="m39.686 42.576c-0.30952-0.068621-0.71173-0.18464-0.8938-0.25782-0.93961-0.37767-36.18-16.533-36.355-16.667-0.31562-0.24029-0.44231-0.56849-0.41075-1.0641 0.051722-0.81228-2.2562 0.35807 22.737-11.53 12.268-5.8352 22.529-10.682 22.804-10.77 1.202-0.38604 2.4401-0.39643 3.6718-0.03081 0.2549 0.075668 8.1055 3.3118 17.446 7.1914 9.3402 3.8796 17.32 7.1929 17.732 7.363 0.41243 0.17009 0.8474 0.38706 0.96658 0.48215 0.28969 0.23115 0.43529 0.55957 0.43529 0.98188 0 0.47894-0.21397 0.82814-0.67243 1.0974-0.19458 0.11428-5.0463 2.6585-10.781 5.6539-5.7352 2.9954-15.269 7.9776-21.186 11.072-12.632 6.605-11.762 6.1607-12.495 6.3782-0.80235 0.23793-2.1698 0.28356-2.9977 0.10002zm-3.5393-5.7009c1.8299-2.5503 4.9522-6.6539 5.0628-6.6539 0.02898 0 1.2479 1.6535 2.7088 3.6745 1.4609 2.021 2.6826 3.6835 2.7148 3.6946 0.05781 0.01973 7.1575-6.7335 7.1525-6.8035-0.0014-0.01977-1.8936-1.3012-4.2049-2.8476-2.3113-1.5464-4.1946-2.8323-4.1851-2.8575 0.03094-0.08203 2.179-2.5136 3.0915-3.4994 3.2536-3.5153 5.7786-5.9286 8.4128-8.0404 2.6083-2.0911 4.7281-3.4056 6.9187-4.2904 0.96376-0.38927 0.67404-0.36468-0.69518 0.058996-4.6347 1.4341-10.188 4.4498-15.527 8.4318-1.8387 1.3714-3.2862 2.5538-5.7213 4.6734l-0.23618 0.20559-5.6159-3.7705c-3.0888-2.0738-5.6279-3.7585-5.6425-3.7438-0.01464 0.01464 1.7269 2.452 3.87 5.4163l3.8966 5.3897-1.4378 1.4921c-1.7047 1.769-2.1199 2.216-3.3644 3.6222l-0.94172 1.064-1.2576 0.04827c-0.98214 0.03769-1.2468 0.0665-1.2084 0.13152 0.11571 0.19583 5.1492 5.9936 5.1902 5.9782 0.02487-0.0093 0.48346-0.62768 1.0191-1.3742z" stroke-width=".00066208"/><g stroke-width=".00033104"><path transform="translate(3.9606 12.883)" d="m40.171 47.292c-0.42618-0.060529-0.87625-0.17233-1.2915-0.32082-0.17272-0.061761-8.1161-3.679-17.652-8.0383l-17.338-7.926-8.86e-5 -1.2161-8.87e-5 -1.2161 0.1738 0.07742c0.095587 0.04258 7.7339 3.5336 16.974 7.7579 9.2401 4.2243 16.945 7.7343 17.122 7.8 0.7001 0.26053 1.5076 0.42912 2.3313 0.48671 1.3741 0.09609 2.8904-0.21275 4.1497-0.84522 0.32005-0.16074 26.223-13.697 26.774-13.991l0.30662-0.16386-0.0174 2.3904-5.0649 2.6481c-2.7857 1.4565-9.0964 4.7557-14.024 7.3317-4.9275 2.5759-9.106 4.7436-9.2856 4.8171-0.37965 0.15529-0.89634 0.3037-1.3197 0.37908-0.42598 0.07584-1.3994 0.09122-1.8373 0.02903z"/><path transform="translate(3.9606 12.883)" d="m40.071 51.897c-0.44152-0.071586-0.94233-0.20797-1.3396-0.36481-0.20028-0.079068-8.1179-3.6894-17.595-8.0229l-17.231-7.8791-0.0086838-1.2106c-0.00478-0.66584 0.00173-1.2106 0.014462-1.2106 0.01273 0 2.3405 1.0595 5.1729 2.3544 24.4 11.155 28.759 13.144 29.034 13.247 0.56981 0.21176 1.0772 0.34238 1.7214 0.4431 0.53079 0.08299 1.7484 0.08343 2.2842 8.21e-4 0.8235-0.12698 1.6504-0.37484 2.3338-0.69954 0.20028-0.09515 3.7978-1.9686 7.9946-4.1632 15.794-8.2591 19.235-10.057 19.25-10.057 0.0089 0 0.01576 0.53256 0.01527 1.1835l-8.94e-4 1.1835-1.2653 0.65867c-1.2982 0.67579-2.8361 1.4797-17.867 9.3396-4.7976 2.5087-8.8495 4.6204-9.0042 4.6925-0.3776 0.17603-0.96662 0.36698-1.4087 0.45669-0.4627 0.09389-1.6513 0.12113-2.1014 0.04816z"/><path transform="translate(3.9606 12.883)" d="m40.337 56.544c-0.4373-0.049166-0.93219-0.16089-1.3573-0.30641-0.26527-0.090814-6.1708-2.7743-16.453-7.476-8.8213-4.0339-16.623-7.6006-17.337-7.9261l-1.2985-0.59176-8.648e-4 -1.2201c-6.829e-4 -0.96362 0.00783-1.2164 0.040515-1.2026 0.022759 0.0096 1.1139 0.5086 2.4249 1.1088 14.399 6.5928 31.48 14.389 31.73 14.482 1.013 0.3773 1.8563 0.52752 2.9462 0.52481 1.1525-0.0029 2.2455-0.23524 3.2773-0.69681 0.19118-0.08552 2.664-1.367 5.4952-2.8478s8.8942-4.6508 13.473-7.0446 8.3517-4.366 8.3835-4.3829c0.05466-0.02885 0.05793 0.03646 0.05793 1.1583v1.1889l-4.6097 2.4095c-5.4041 2.8247-12.033 6.2909-18.629 9.7402-2.5945 1.3568-4.8141 2.5105-4.9325 2.5637-0.98169 0.44153-2.1789 0.63504-3.2111 0.519z"/><path transform="translate(3.9606 12.883)" d="m40.27 61.158c-0.30748-0.03463-0.95054-0.18567-1.2924-0.30356-0.20937-0.07219-1.7062-0.73731-3.3262-1.478s-9.3735-4.2856-17.23-7.8776c-7.8564-3.5919-14.34-6.5575-14.408-6.5902l-0.12414-0.05942v-1.2145-1.2145l6.4966 2.9702c20.168 9.2207 27.3 12.48 27.418 12.53 0.57898 0.24416 1.3796 0.46516 2.0524 0.56656 0.49352 0.07438 1.665 0.08467 2.1352 0.01875 0.80789-0.11324 1.6233-0.34109 2.3051-0.64408 0.17967-0.07985 2.293-1.1735 4.6964-2.4304 2.4033-1.2569 6.9841-3.6519 10.179-5.3224 3.1953-1.6705 7.302-3.8175 9.1259-4.7712 1.8239-0.9537 3.3398-1.7431 3.3687-1.7542 0.04746-0.01821 0.05169 0.09424 0.04383 1.1661l-0.0087 1.1863-3.0124 1.5748c-4.1459 2.1673-11.569 6.0484-18.881 9.8714-3.375 1.7646-6.2947 3.2733-6.4883 3.3525-0.42624 0.17453-0.99083 0.32717-1.4653 0.39616-0.32491 0.04724-1.2647 0.06356-1.5847 0.02752z"/><path transform="translate(3.9606 12.883)" d="m40.458 65.945c-0.4558-0.037584-0.96315-0.14359-1.4287-0.29852-0.2657-0.088428-6.1467-2.7608-17.76-8.0704l-17.363-7.9382-0.0086635-1.2998c-0.0069-1.0359-1.828e-4 -1.2963 0.033104-1.2828 0.022972 0.0094 1.8815 0.8585 4.1301 1.887 22.258 10.181 29.73 13.59 30.025 13.702 0.4571 0.17297 1.0526 0.33461 1.578 0.42829 0.36925 0.06585 0.53742 0.0759 1.2855 0.07678 0.54926 6.52e-4 0.96251-0.01466 1.1421-0.04233 0.73458-0.11318 1.4857-0.32337 2.1139-0.59152 0.18857-0.0805 3.7712-1.9387 7.9615-4.1294 13.284-6.9448 19.267-10.072 19.412-10.145l0.14069-0.07131-3.31e-4 1.2669-3.31e-4 1.2669-2.259 1.1805c-3.5278 1.8436-10.915 5.7059-18.48 9.662-3.8053 1.99-7.0975 3.7036-7.3159 3.8079-0.69278 0.33096-1.4082 0.52476-2.1849 0.5919-0.44027 0.03806-0.54741 0.03794-1.021-0.0011v1e-6z"/></g><g stroke-width=".00016552"><path transform="translate(3.9606 12.883)" d="m71.724 49.426 2.62e-4 -1.2721 1.9073-0.99648c1.049-0.54806 4.4584-2.3301 7.5763-3.96s5.6798-2.9636 5.693-2.9636c0.01327 0 0.1176 0.04599 0.23184 0.1022 0.18958 0.09327 0.22072 0.11531 0.35668 0.25242 0.23939 0.24141 0.34908 0.49149 0.3675 0.83788 0.01439 0.27048-0.04439 0.5123-0.17956 0.73874-0.07014 0.1175-0.25955 0.31208-0.37829 0.3886-0.05007 0.03227-2.5564 1.3474-5.5697 2.9226-3.0133 1.5751-6.4842 3.3895-7.7132 4.0319-1.229 0.64243-2.2475 1.173-2.2635 1.179-0.02743 0.0104-0.02895-0.05638-0.0287-1.2611z"/><path transform="translate(3.9606 12.883)" d="m71.712 44.773c0.0026-0.9146-0.0011-1.1628-0.01769-1.1828-0.01826-0.02208 0.08844-0.08253 0.81932-0.46413 0.46218-0.24131 2.7955-1.4609 5.1852-2.7103 2.3897-1.2494 5.3355-2.7894 6.5463-3.4224 1.2108-0.63295 2.3392-1.2234 2.5076-1.3121l0.30621-0.16125 0.12561 0.06487c0.44739 0.23103 0.70521 0.6955 0.67216 1.2109-0.01272 0.19832-0.04477 0.31708-0.13556 0.50217-0.08845 0.18033-0.25112 0.36457-0.41926 0.47485-0.0608 0.03988-0.46806 0.25899-0.90504 0.48693-0.43697 0.22793-3.07 1.6041-5.8511 3.0582-2.7811 1.4541-5.8949 3.082-6.9195 3.6177-1.0246 0.53566-1.8752 0.97864-1.8902 0.9844-0.02523 0.0097-0.02705-0.07746-0.024-1.147z"/><path transform="translate(3.9606 12.883)" d="m71.72 40.154c-0.0036-0.87679-0.0096-1.162-0.02488-1.1803-0.02118-0.02551-0.48572 0.2188 11.143-5.8603l3.4759-1.8171 1.2798-5e-5 0.06915 0.10949c0.25596 0.40529 0.26363 0.9357 0.01958 1.3544-0.07515 0.12892-0.24411 0.30438-0.38254 0.39725-0.05981 0.04012-1.8293 0.97195-3.9322 2.0707-2.1029 1.0988-4.6465 2.4281-5.6525 2.9541-5.1312 2.683-5.9827 3.128-5.9865 3.128-0.0022 0-0.0062-0.52025-0.0088-1.1561z"/><path transform="translate(3.9606 12.883)" d="m71.724 35.577c0-0.61322-0.0043-1.1476-0.0096-1.1876l-0.0096-0.07266 1.4786-0.77231c1.7481-0.91308 6.3714-3.3299 10.706-5.5967 1.7069-0.89259 3.1229-1.6303 3.1467-1.6394 0.0365-0.01393 0.0609-0.0068 0.15643 0.04571 0.36326 0.19967 0.58799 0.51783 0.6534 0.92506 0.02446 0.1523 0.0124 0.40264-0.02648 0.54932-0.06492 0.24494-0.22999 0.49261-0.4354 0.65324-0.08504 0.0665-0.72393 0.40837-2.4381 1.3046-1.2776 0.66797-3.7343 1.9524-5.4594 2.8542-1.7251 0.90186-4.1744 2.1824-5.4428 2.8456-1.2684 0.66322-2.3093 1.2059-2.3131 1.2059-0.0038 0-0.0069-0.50172-0.0069-1.1149z"/><path transform="translate(3.9606 12.883)" d="m71.718 30.895c0.0057-0.65805 0.01501-1.2011 0.02067-1.2069 0.0057-0.0057 0.83707-0.44239 1.8476-0.97034s4.4543-2.3281 7.6529-4.0003c5.546-2.8994 5.818-3.0395 5.8666-3.0226 0.1103 0.03845 0.29457 0.17156 0.41562 0.30025 0.09369 0.09959 0.14443 0.17197 0.20001 0.28527 0.09488 0.19344 0.12448 0.30768 0.13599 0.525 0.0256 0.4832-0.20709 0.92012-0.61757 1.1596-0.07186 0.04193-1.3894 0.73384-2.9279 1.5376s-3.6836 1.9248-4.7669 2.4913c-1.0833 0.56646-3.2769 1.7133-4.8745 2.5485s-2.9179 1.5254-2.9338 1.5338c-0.02748 0.01447-0.02842-0.04541-0.01857-1.1812z"/></g><path transform="translate(3.9606 12.883)" d="m86.33 31.283c0.33436-0.17593 0.72598-0.37806 0.73247-0.37806 0.0047 0 0.0453 0.01816 0.09014 0.04035 0.08834 0.04372 0.17894 0.10099 0.2483 0.15695 0.04729 0.03815 0.14258 0.13128 0.17085 0.16697l0.0174 0.02197-0.6369-2.35e-4c-0.53003-1.95e-4 -0.63444-0.0015-0.62226-0.0079z" stroke-width="5.852e-5"/><g stroke-width=".00011704"><path transform="translate(3.9606 12.883)" d="m3.2982 30.747c-0.67456-0.3083-0.69671-0.31936-0.81564-0.40687-0.27473-0.20216-0.45327-0.49649-0.50158-0.82685-0.019821-0.13556-0.0082095-0.41316 0.022083-0.52796 0.063366-0.24014 0.1735-0.42888 0.34805-0.59646 0.11116-0.10671 0.20587-0.17155 0.36886-0.25247l0.11231-0.05577 1.0628 0.48573-0.00303 1.2219c-0.00167 0.67203-0.00693 1.2217-0.011704 1.2214-0.00477-2.75e-4 -0.26674-0.11845-0.58217-0.26262z"/><path transform="translate(3.9606 12.883)" d="m3.2924 35.36c-0.32508-0.1493-0.62792-0.29162-0.67298-0.31625-0.33611-0.18376-0.5605-0.49648-0.63287-0.88202-0.02733-0.14559-0.01812-0.42662 0.018506-0.5647 0.036735-0.13849 0.090945-0.26154 0.16576-0.37625 0.12908-0.19791 0.28222-0.33094 0.5213-0.45283l0.14023-0.0715 0.53725 0.24618c0.29549 0.1354 0.55305 0.25363 0.57237 0.26272l0.035112 0.01654-0.073455-0.0126-0.00884 0.2435c-0.00486 0.13392-0.00516 0.67933-6.531e-4 1.212 0.0045 0.53268 0.00394 0.96811-0.00125 0.96763-0.00519-4.82e-4 -0.27541-0.12303-0.60049-0.27234z"/><path transform="translate(3.9606 12.883)" d="m3.2651 39.963c-0.33366-0.15337-0.64902-0.30434-0.7008-0.33547-0.11902-0.071571-0.29139-0.23361-0.371-0.34878-0.081526-0.11793-0.14817-0.26293-0.18468-0.4018-0.036754-0.1398-0.050066-0.40825-0.027294-0.5504 0.055024-0.34346 0.25828-0.66002 0.54683-0.85165 0.084808-0.05632 0.29338-0.15933 0.31354-0.15484 0.046842 0.01042 1.0906 0.49628 1.0801 0.50278-0.025686 0.01588-0.030999 0.23571-0.031714 1.3121-4.049e-4 0.60992-0.00469 1.1085-0.00951 1.1079-0.00483-5.62e-4 -0.28178-0.12651-0.61544-0.27988z"/><path transform="translate(3.9606 12.883)" d="m3.6786 44.769c-0.099776-0.046601-0.3753-0.17338-0.61227-0.28174-0.47212-0.21587-0.59104-0.28458-0.72806-0.42068-0.24722-0.24554-0.36845-0.54706-0.36845-0.9164 0-0.52119 0.2794-0.94919 0.76654-1.1743l0.099214-0.04584 1.0596 0.48389-0.00303 1.2209c-0.00239 0.96312-0.0061 1.2207-0.017556 1.2199-0.00799-5.49e-4 -0.096158-0.03913-0.19593-0.08573z"/><path transform="translate(3.9606 12.883)" d="m3.266 49.356c-0.33959-0.15628-0.6468-0.30189-0.6827-0.32358-0.25203-0.15228-0.44323-0.38214-0.53769-0.64641-0.053982-0.15104-0.075777-0.28354-0.075777-0.46071 0-0.42188 0.17916-0.779 0.51497-1.0265 0.10424-0.07682 0.51103-0.27851 0.53662-0.26605 0.010622 0.0052 0.22057 0.101 0.46655 0.21296 0.24598 0.11196 0.44137 0.20719 0.4342 0.21162-0.029447 0.0182-0.035011 0.30296-0.027929 1.4294 4e-3 0.63567 0.0032 1.1552-0.00178 1.1546s-0.28689-0.12907-0.62648-0.28535z"/></g></g></g></svg>
